<?xml version="1.0" standalone="no"?><!DOCTYPE svg PUBLIC "-//W3C//DTD SVG 1.1//EN" "http://www.w3.org/Graphics/SVG/1.1/DTD/svg11.dtd"><svg class="icon" width="128px" height="128.00px" viewBox="0 0 1024 1024" version="1.1" xmlns="http://www.w3.org/2000/svg"><path fill="#ffffff" d="M257.14978475 766.85021525h436.88541866c20.1073755 0 36.40750649 16.30013099 36.40750536 36.40750649s-16.30013099 36.40750649-36.40750536 36.40750649H257.14978475c-20.1073755 0-36.40750649-16.30013099-36.40750649-36.40750649s16.30013099-36.40750649 36.40750649-36.40750649z m0-182.03636736h218.44270876c20.1073755 0 36.40750649 16.30013099 36.40750649 36.40750649s-16.30013099 36.40750649-36.40750649 36.40750649H257.14978475c-20.1073755 0-36.40750649-16.30013099-36.40750649-36.40750649s16.30013099-36.40750649 36.40750649-36.40750649zM653.21152512 34.28974023l263.68372281 263.68372167a109.22019043 109.22019043 0 0 1 31.99017074 77.23118365v537.27326663c0 60.32096256-48.90039182 109.22135438-109.22135552 109.22135438H184.33593685c-60.32096256 0-109.22135438-48.90039182-109.22135552-109.22135438V111.52092387c0-60.32096256 48.90039182-109.22135438 109.22135552-109.22135438h391.64440462c28.96766066 0 56.74774073 11.50789177 77.23118365 31.99017074z m-31.99017074 70.98474041v224.689152h224.689152L621.22135438 105.27448064z m-60.32096256-30.15989931H184.33593685c-20.1073755 0-36.40750649 16.30013099-36.40750648 36.40750649v800.95698831c0 20.1073755 16.30013099 36.40750649 36.40750648 36.40750648h655.3281263c20.1073755 0 36.40750649-16.30013099 36.40750648-36.40750648V390.28575915v12.49288647H621.22135438c-40.21475101 0-72.81384789-32.60026197-72.81384789-72.81384903V75.11458133h12.49288533z" /></svg>