<?xml version="1.0" standalone="no"?><!DOCTYPE svg PUBLIC "-//W3C//DTD SVG 1.1//EN" "http://www.w3.org/Graphics/SVG/1.1/DTD/svg11.dtd"><svg class="icon" width="128px" height="128.00px" viewBox="0 0 1024 1024" version="1.1" xmlns="http://www.w3.org/2000/svg"><path d="M220.74227826 694.03520341h182.03520341c20.1073755 0 36.40750649 16.30013099 36.40750535 36.40750536s-16.30013099 36.40750649-36.40750535 36.40750648H220.74227826c-20.1073755 0-36.40750649-16.30013099-36.40750649-36.40750648 0.00116395-20.1073755 16.30129493-36.40750649 36.40750649-36.40750536zM1010.96679424 64.42169571L702.04205966 373.34643029c-14.21837085 14.21837085-37.26908416 14.21837085-51.487455 0-14.2172069-14.2172069-14.2172069-37.26908416 0-51.487455L959.47933923 12.93424071c14.21837085-14.21837085 37.26908416-14.21837085 51.48745501 0 14.21837085 14.21837085 14.21837085 37.27024925 0 51.487455zM220.74227826 475.56338688h473.29292515c20.1073755 0 36.40750649 16.30013099 36.40750536 36.40750535s-16.30013099 36.40750649-36.40750536 36.40750649H220.74227826c-20.1073755 0-36.40750649-16.30013099-36.40750649-36.40750649 0.00116395-20.10621155 16.30129493-36.40750649 36.40750649-36.40750535z m0-218.4427099h254.85021525c20.1073755 0 36.40750649 16.30013099 36.40750649 36.40750649s-16.30013099 36.40750649-36.40750649 36.40750648H220.74227826c-20.1073755 0-36.40750649-16.30013099-36.40750649-36.40750648 0.00116395-20.1073755 16.30129493-36.40750649 36.40750649-36.40750649z m728.14314041 182.06431004c0-20.1073755 16.30013099-36.40750649 36.40750535-36.40750535s36.40750649 16.30013099 36.40750649 36.40750535v473.29292516c0 60.32096256-48.90039182 109.22135438-109.22135438 109.22135438H111.52092387c-60.32096256 0-109.22135438-48.90039182-109.22135438-109.22135438V111.52092387c0-60.32096256 48.90039182-109.22135438 109.22135438-109.22135438h473.29292402c20.1073755 0 36.40750649 16.30013099 36.40750649 36.40750649s-16.30013099 36.40750649-36.40750649 36.40750535H111.52092387c-20.1073755 0-36.40750649 16.30013099-36.40750648 36.40750649v800.95698831c0 20.1073755 16.30013099 36.40750649 36.40750648 36.40750648h800.95698831c20.1073755 0 36.40750649-16.30013099 36.40750649-36.40750648V439.18498702z" /></svg>