<?xml version="1.0" standalone="no"?><!DOCTYPE svg PUBLIC "-//W3C//DTD SVG 1.1//EN" "http://www.w3.org/Graphics/SVG/1.1/DTD/svg11.dtd"><svg class="icon" width="128px" height="128.00px" viewBox="0 0 1024 1024" version="1.1" xmlns="http://www.w3.org/2000/svg"><path fill="#ffffff" d="M723.61644715 466.50284259l-98.8195419 171.16068637a36.40867043 36.40867043 0 0 1-19.78835968 16.25821639l-133.38862706 45.44592896L774.06651619 873.98398862l-27.33648326-138.24024462a36.41099947 36.41099947 0 0 1 4.18564096-25.26636601l98.8195419-171.1606875-126.11876864-72.8138479z m189.17698901 109.22135439l-91.97930951 159.31282091 40.24735175 203.53041749c6.06830592 30.68499627-26.83001515 54.23169877-53.91850382 38.59172352l-189.17698901-109.22135439-91.01760171 157.64787883c-10.05368775 17.41319737-32.31966663 23.37904413-49.73286287 13.32652146-17.41319737-10.05368775-23.37904413-32.31966663-13.32652145-49.73286286l91.01760171-157.64787883-189.17698902-109.22135438c-27.08848867-15.63997525-23.14618539-55.90362681 6.46183822-65.99107926l196.38630286-66.90854456 91.97930952-159.31282091-63.05938432-36.40750535c-17.41319737-10.05368775-23.37904413-32.31966663-13.32652146-49.732864 10.05368775-17.41319737 32.31966663-23.37904413 49.732864-13.32535638l378.35397689 218.44270877c17.41319737 10.05368775 23.37904413 32.31966663 13.32652145 49.732864-10.05368775 17.41319737-32.31966663 23.37904413-49.73286286 13.32652032l-63.05822037-36.40983438zM721.67323875 53.01858987v-36.40750649c0-20.1073755 16.30013099-36.40750649 36.4075065-36.40750535s36.40750649 16.30013099 36.40750648 36.40750535v36.40750649h109.22135438c60.32096256 0 109.22135438 48.90039182 109.22135439 109.22135438V307.86880512c0 20.1073755-16.30013099 36.40750649-36.40750649 36.40750649s-36.40750649-16.30013099-36.40750649-36.40750649V162.23994425c0-20.1073755-16.30013099-36.40750649-36.40750535-36.40750535H794.48708665v36.40750535c0 20.1073755-16.30013099 36.40750649-36.40750535 36.40750649s-36.40750649-16.30013099-36.40750649-36.40750649v-36.40750535H284.78665614v36.40750535c0 20.1073755-16.30013099 36.40750649-36.40750649 36.40750649s-36.40750649-16.30013099-36.40750648-36.40750649v-36.40750535h-109.22135439c-20.1073755 0-36.40750649 16.30013099-36.40750649 36.40750535v728.14314041c0 20.1073755 16.30013099 36.40750649 36.40750649 36.40750649h109.22135439c20.1073755 0 36.40750649 16.30013099 36.40750648 36.40750648s-16.30013099 36.40750649-36.40750648 36.4075065h-109.22135439c-60.32096256 0-109.22135438-48.90039182-109.22135438-109.22135552V162.23994425c0-60.32096256 48.90039182-109.22135438 109.22135438-109.22135438h109.22135439v-36.40750649c0-20.1073755 16.30013099-36.40750649 36.40750648-36.40750535s36.40750649 16.30013099 36.40750649 36.40750535v36.40750649h436.88658261z" /></svg>