<?xml version="1.0" standalone="no"?><!DOCTYPE svg PUBLIC "-//W3C//DTD SVG 1.1//EN" "http://www.w3.org/Graphics/SVG/1.1/DTD/svg11.dtd"><svg class="icon" width="128px" height="128.00px" viewBox="0 0 1024 1024" version="1.1" xmlns="http://www.w3.org/2000/svg"><path d="M615.15253973 819.1850592h136.52705707c37.70132907 0 68.2629824 30.5627456 68.2629824 68.26298347H546.88846507c0-37.70132907 30.5627456-68.2629824 68.26407466-68.26298347zM411.51187733 532.34387307c15.88826133 26.48370987 24.67614187 52.4445792 24.67614187 82.05005546 0 94.62880853-53.47825493 129.7235712-172.37279147 163.75737174-3.85527147 1.10353387-20.91583253 5.94008747-25.47077333 7.24555306-9.58906133 2.7495552-17.27995733 5.0253888-24.5648064 7.2913984-33.34286293 10.36950293-56.8827264 20.35478827-75.3087872 32.5547808-33.4836704 22.1699968-54.64400533 53.18790827-64.99386027 96.33704747h877.03071787c-10.22978773-43.0869216-31.3988544-74.0568064-65.08991573-96.23990187-18.1804672-11.96968107-41.1199904-21.81961707-73.01548907-31.92060373-7.5806528-2.40026667-15.5935488-4.80380907-25.56682773-7.69307947-4.83873707-1.40152-22.66991573-6.5011328-26.5513856-7.6221312-117.48100907-33.94975253-170.67655893-69.34032-170.67655787-163.7104352 0-29.366432 8.56848427-55.20068373 24.09763307-81.57087573 5.05376853-8.58267413 10.43390293-16.63268267 18.02656213-27.32309333-3.89020053 5.47837227 13.08522133-18.25141653 16.77458027-23.6228192 24.44146347-35.57394347 34.90047147-63.48427947 34.90047253-106.40419734v-102.39501973c0-105.97195307-61.53044693-170.6580032-170.6481792-170.6580032-110.64586987 0-172.02568533 64.57908053-170.66564373 169.77604907l0.00545813 0.88304533v46.7992032c0 30.98844053 0 30.98844053-0.00545813 56.47886187-0.55340373 42.79657493 9.80300053 70.33906667 34.72910186 106.00578986 3.68936 5.27862293 20.00659093 27.73678293 16.57264854 22.97554347 7.61776427 10.55942827 13.02955307 18.52648107 18.11715946 27.00546027zM273.83544213 273.0779232C272.06935253 136.55086613 357.5533504 34.1558464 512.7586112 34.1558464c153.42716373 0 238.9111616 102.11449707 238.9111616 238.9220768v102.39501973c0 136.52705707-93.7981568 170.6580032-93.7981568 238.9220768 0 102.39501973 161.40185707 85.66737493 265.08487893 153.93144854 48.45832427 31.90423147 79.7807712 77.73197653 93.96843414 137.4832352 8.70929067 36.680752-13.964992 73.47720533-50.6468352 82.1875872a68.26953173 68.26953173 0 0 1-15.77037547 1.84686293l-877.02962667 0.00109227c-37.70132907 0-68.26407467-30.5627456-68.2640736-68.26407467 0-5.36266987 0.6319936-10.70678507 1.8828832-15.9220992 14.31427947-59.67703467 45.54285653-105.45456853 93.68791254-137.33260373 103.09905493-68.2629824 267.14022293-51.5364288 267.14022293-153.93144854 0-68.2629824-95.854592-102.39501973-94.08959467-238.9220768v-102.39501973z" /></svg>