<?xml version="1.0" standalone="no"?><!DOCTYPE svg PUBLIC "-//W3C//DTD SVG 1.1//EN" "http://www.w3.org/Graphics/SVG/1.1/DTD/svg11.dtd"><svg class="icon" width="128px" height="128.00px" viewBox="0 0 1024 1024" version="1.1" xmlns="http://www.w3.org/2000/svg"><path d="M514.04450247 1021.69926656c-5.97283385 0-11.98176029-0.08848611-17.95459413-0.30271715a518.54557981 518.54557981 0 0 1-38.18538553-2.75588552c-17.35032491-1.90245774-30.89573319-15.80414066-32.31850155-33.1544667-2.06196622-24.67490475-12.08887523-47.30414421-29.01190428-65.41940964-40.17632939-43.12665315-106.66106994-46.75343246-151.17439773-8.23040227-13.1553701 11.37749106-32.5315675 11.83971669-46.3261366 1.08395861-30.64773859-24.08810041-58.59314802-51.78435129-83.05382286-82.2888812-10.87917283-13.59896576-10.63001429-32.99379314 0.60426922-46.29120683 15.99974286-18.89650915 24.92289934-41.95304334 25.77632825-66.71643535 2.02703758-58.96572245-42.38034034-108.49250531-101.11553308-112.74101873-17.38525355-1.26209593-31.46507378-14.70155321-33.52704-32.01578553a513.36563143 513.36563143 0 0 1-3.27050468-78.62717326c0.46222563-12.90621042 1.35058205-25.63428466 2.73725781-38.22031304 1.88382891-17.35032491 15.82160555-30.89573319 33.2068591-32.33596643 24.63881216-2.02703758 47.21565696-12.05278265 65.34838841-28.97697565 43.16274574-40.21125803 46.75343246-106.6261413 8.24902997-151.21049144-11.37749106-13.19029874-11.83971669-32.6212187-1.06649372-46.32613547 24.17658653-30.68266723 51.83790877-58.62807779 82.30751004-83.01773027 13.54657337-10.91526656 32.9588645-10.63117824 46.29120683 0.62173297 18.87904427 15.98111403 41.95304334 24.8879707 66.73506417 25.7588645 60.12186738 2.7733504 108.47504157-42.39780409 112.74101874-101.15046173 1.24463104-17.38525355 14.68408946-31.43014514 31.99832064-33.50957624a515.11789568 515.11789568 0 0 1 78.64463816-3.25303979 522.02682254 522.02682254 0 0 1 38.18538438 2.73725781c17.35032491 1.88382891 30.89573319 15.82160555 32.35343133 33.2068591 2.02703758 24.65627591 12.01668893 47.26921443 28.94088192 65.38331704 40.17632939 43.12665315 106.66106994 46.73596757 151.24658403 8.21293739 13.1553701-11.37749106 32.63868359-11.83971669 46.29120683-1.04902997 30.68266723 24.12302905 58.59314802 51.80181504 83.01773028 82.27141746 10.91526656 13.59896576 10.63001429 33.01125803-0.64036181 46.30867058-15.96364914 18.86157938-24.8879707 41.9181147-25.74139962 66.69897158-2.02703758 58.9482587 42.38034034 108.47504157 101.15046173 112.7410176 17.42134727 1.27956082 31.46507378 14.70155321 33.52704 32.01578554 3.05743872 25.77632825 4.16002617 52.22911203 3.23557603 78.6097095-0.46222563 12.90621042-1.35058205 25.65174841-2.73725781 38.23777792-1.88382891 17.31423118-15.82160555 30.87826944-33.17193045 32.31850155-24.63881216 2.04450247-47.28667933 12.0702464-65.41941078 28.97697565-43.12665315 40.21125803-46.71733874 106.64360505-8.21293624 151.21049144 11.37749106 13.19029874 11.83971669 32.60258987 1.06649372 46.30867172-24.14049394 30.66520349-51.80181504 58.61061291-82.30751004 83.03635911-13.61759459 10.89780167-32.99379314 10.63001429-46.29120683-0.64036295-18.84411563-15.96364914-41.88202211-24.85187811-66.69897045-25.72277077-60.22781838-2.59521422-108.47504157 42.38034034-112.74101874 101.13299683-1.24463104 17.38525355-14.68408946 31.44760889-31.99832064 33.50957625a515.12488163 515.12488163 0 0 1-60.69004402 3.57438578z m-21.19017017-73.31100217c1.91992263 0.08848611 3.83984526 0.17813731 5.75976789 0.23053084a451.82798051 451.82798051 0 0 0 40.46041658-0.42613304c20.40776363-82.07581525 94.75149597-140.29522489 182.95965354-137.48694472 30.14942037 1.06649373 59.62354915 9.68809927 85.47089977 24.76339087a433.97933739 433.97933739 0 0 0 32.60258987-32.8692133c-43.62497138-72.44127346-31.89236963-166.83649479 32.17645795-226.56716003 22.04359794-20.56843605 48.993536-35.30491904 77.96934656-42.93105096 0.07102237-1.95601522 0.17813731-3.92833138 0.24915968-5.88434773a450.27597539 450.27597539 0 0 0-0.42613191-40.40686023c-82.09328014-20.37283499-140.54438457-95.42678642-137.48694585-182.94218866 1.03156509-30.14942037 9.67063438-59.64101405 24.74592711-85.50699236a440.32823865 440.32823865 0 0 0-32.85174954-32.58512611c-72.45873835 43.60634254-166.81903104 31.8737408-226.58462379-32.15899307-20.90608185-22.41617237-35.48305635-48.97490717-43.02070215-77.98681144-1.91992263-0.08848611-3.80375154-0.17813731-5.72367417-0.23053085-13.47438706-0.44476075-27.05705301-0.35510955-40.46041771 0.42613191-20.37283499 82.09328014-94.18215538 140.18927389-182.95965354 137.48694585-30.64773859-1.08395861-59.73066525-9.54605568-85.57801472-24.72729827a446.19512149 446.19512149 0 0 0-32.5315675 32.81565582c43.62497138 72.45873835 31.89236963 166.85395968-32.1764591 226.56716003-22.04359794 20.56843605-48.993536 35.32238279-77.96934656 42.94851584-0.07102237 1.95601522-0.17813731 3.91086763-0.24915854 5.86688285-0.46222563 13.43945728-0.28408832 26.96740181 0.4622245 40.40686023 82.0583515 20.37283499 140.50829085 95.42678642 137.45085326 182.95965355-1.03156509 30.62910976-9.49249707 59.73066525-24.70983452 85.57801472a442.6568283 442.6568283 0 0 0 32.81565582 32.51410374c72.49483093-43.69599374 166.81903104-31.8737408 226.58462492 32.15899307 20.90608185 22.41617237 35.48305635 48.95627833 43.02070215 77.98681145z m21.01203285-217.94555562c-120.45680185 0-218.44270877-97.98590691-218.44270876-218.44270877s97.98590691-218.44270877 218.44270876-218.44270877 218.44270877 97.98590691 218.44270877 218.44270877-97.98590691 218.44270877-218.44270877 218.44270877z m0-364.07156964c-80.31656505 0-145.62886087 65.32975957-145.62886086 145.62886087s65.31229582 145.62886087 145.62886086 145.62886087 145.62886087-65.32975957 145.62886088-145.62886087-65.31229582-145.62886087-145.62886088-145.62886087z" /></svg>