<?xml version="1.0" standalone="no"?><!DOCTYPE svg PUBLIC "-//W3C//DTD SVG 1.1//EN" "http://www.w3.org/Graphics/SVG/1.1/DTD/svg11.dtd"><svg class="icon" width="128px" height="128.00px" viewBox="0 0 1024 1024" version="1.1" xmlns="http://www.w3.org/2000/svg"><path d="M273.0779232 443.73592533c-37.70132907 0-68.2629824-30.5627456-68.2629824-68.2629824s30.5627456-68.2629824 68.2629824-68.2629824c37.70132907 0 68.2629824 30.5627456 68.2629824 68.2629824s-30.56165333 68.2629824-68.2629824 68.2629824z m682.63419307 322.3136192l-276.25446934-275.2830112L363.2303808 776.2564096c-13.47162133 12.16288107-34.10693227 11.65422933-46.96293227-1.15701867L200.94220373 660.18892693l-132.65432 107.0481984v86.0799712c0 18.85066453 15.2813728 34.13203733 34.13203627 34.13203734h819.16016c18.85066453 0 34.13203733-15.2813728 34.13203627-34.13203734v-87.267552z m0-96.36979306V170.68290347c0-18.85066453-15.2813728-34.13203733-34.13203627-34.13203734H102.41992c-18.85066453 0-34.13203733 15.2813728-34.13203627 34.13203734v508.8358688l89.78461227-72.4544448c27.11897813-21.88401707 66.36700053-19.828672 91.0518752 4.76778773l92.39117867 92.06044587 292.19730773-263.7957856c26.94542613-24.32576213 68.21495573-23.30845973 93.92914027 2.31512853l228.0701184 227.26784747zM0.02490027 751.22552107a48.81306987 48.81306987 0 0 1 0-0.56541014V170.68290347c0-56.5509024 45.84411733-102.39501973 102.39501973-102.39501974h819.16016c56.5509024 0 102.39501973 45.84411733 102.39501973 102.39501974v682.63419306c0 56.5509024-45.84411733 102.39501973-102.39501973 102.39501974H102.41992c-56.5509024 0-102.39501973-45.84411733-102.39501973-102.39501974v-102.09157546z" /></svg>