<?xml version="1.0" standalone="no"?><!DOCTYPE svg PUBLIC "-//W3C//DTD SVG 1.1//EN" "http://www.w3.org/Graphics/SVG/1.1/DTD/svg11.dtd"><svg class="icon" width="128px" height="128.00px" viewBox="0 0 1024 1024" version="1.1" xmlns="http://www.w3.org/2000/svg"><path  d="M771.92741547 68.28788373l-4.04956374 21.4867008c-5.10943573 27.10478933-28.83485867 46.7773728-56.41555306 46.7773728h-100.38552l-5.5525952 62.19300374-13.93988694 156.12105066-4.9642624 55.59145067 53.49790187 15.91118293c113.31465173 33.70088427 158.08143253 111.73084693 172.8421472 188.02855787H211.0399168c14.76071467-76.29770987 59.52858667-154.32767253 172.8432384-188.02855787l53.49790293-15.91118293-4.96426346-55.59145067-13.93988587-156.12105066-5.55259627-62.19300374H312.5398848c-27.5806944 0-51.30720853-19.67149227-56.41555307-46.7762816L252.07149333 68.28788373h519.85592214m41.16583466-68.26298346H210.90565867c-2.12083627 0-4.23730667 0.19756587-6.3210304 0.59051626-18.5242976 3.49179413-30.71119253 21.33825387-27.21939947 39.86364267l11.67496853 61.9408608c11.19360533 59.3845056 63.06731627 102.39501973 123.49859627 102.3950208h37.9447392l13.93988587 156.12105067c-157.46908693 46.8319488-227.8725536 172.5408864-227.87255254 321.72310293h324.98349227l14.01738453 307.10101227c0.85248213 18.6607392 16.842256 34.21608427 35.69073707 34.21608426h2.48649813c19.12572907 0 34.7869536-15.31848427 35.59795734-34.21608426l13.1845504-307.10101227h324.9365568c0-149.18221653-70.4023744-274.89115307-227.8725536-321.72310293l13.93988693-156.12105067h37.9458304c60.43018773 0 112.30389867-43.01051413 123.49859627-102.3950208l11.67387626-61.9408608c0.39294933-2.084816 0.59051627-4.2023776 0.59051627-6.3221216 0.0010912-18.85066453-15.27918933-34.13203733-34.13094507-34.13203733z" /></svg>