<?xml version="1.0" standalone="no"?><!DOCTYPE svg PUBLIC "-//W3C//DTD SVG 1.1//EN" "http://www.w3.org/Graphics/SVG/1.1/DTD/svg11.dtd"><svg class="icon" width="128px" height="128.00px" viewBox="0 0 1024 1024" version="1.1" xmlns="http://www.w3.org/2000/svg"><path fill="#ffffff" d="M204.8149408 716.79003947h409.58007893c18.85066453 0 34.13203733 15.2813728 34.13203734 34.13203733s-15.2813728 34.13203733-34.13203734 34.13203733H204.8149408c-18.85066453 0-34.13203733-15.2813728-34.13203733-34.13203733s15.2813728-34.13203733 34.13203733-34.13203733z m0-170.65800214h204.79003947c18.85066453 0 34.13203733 15.2813728 34.13203733 34.13203734s-15.2813728 34.13203733-34.13203733 34.13203626H204.8149408c-18.85066453 0-34.13203733-15.2813728-34.13203733-34.13203626s15.2813728-34.13203733 34.13203733-34.13203734z m-102.3950208-409.5811712c-18.85066453 0-34.13203733 15.2813728-34.13203627 34.13203734v682.63419306c0 18.85066453 15.2813728 34.13203733 34.13203627 34.13203734h819.16016c18.85066453 0 34.13203733-15.2813728 34.13203627-34.13203734V273.0779232c0-18.85066453-15.2813728-34.13203733-34.13203627-34.13203733H580.2629824a170.65472853 170.65472853 0 0 1-102.39501973-34.13203734l-81.91579734-61.43657493a34.1364032 34.1364032 0 0 0-20.4792224-6.82640747H102.41992z m0-68.2629824h273.05302293a102.39174507 102.39174507 0 0 1 61.43657494 20.47922134l81.9157984 61.436576a102.39174507 102.39174507 0 0 0 61.43657493 20.4792224H921.57898773c56.5509024 0 102.39501973 45.84411733 102.3950208 102.39501973v580.23917333c0 56.5509024-45.84411733 102.39501973-102.3950208 102.39501974H102.41992c-56.5509024 0-102.39501973-45.84411733-102.39501973-102.39501974V170.68290347c0-56.5509024 45.84302613-102.39501973 102.39501973-102.39501974z" /></svg>